<svg version="1.1" xmlns="http://www.w3.org/2000/svg" xmlns:xlink="http://www.w3.org/1999/xlink" width="512.000000pt" height="512.000000pt" viewBox="0,0,256,256"><g fill="#72727c" fill-rule="nonzero" stroke="none" stroke-width="1" stroke-linecap="butt" stroke-linejoin="miter" stroke-miterlimit="10" stroke-dasharray="" stroke-dashoffset="0" font-family="none" font-weight="none" font-size="none" text-anchor="none" style="mix-blend-mode: normal"><g transform="translate(0.10381,-0.0663) scale(0.5,0.5)"><g transform="translate(0,512) scale(0.1,-0.1)"><path d="M3951,4817c-15,-15 -14,-38 4,-57c9,-10 13,-24 9,-34c-6,-15 -13,-11 -44,23c-38,41 -62,46 -74,15c-7,-18 17,-69 49,-104c18,-20 21,-30 14,-49c-10,-24 -10,-24 -29,-5c-10,10 -34,46 -52,79c-37,66 -68,82 -88,45c-15,-28 12,-87 74,-163c44,-54 46,-59 33,-83l-13,-25l-42,45c-22,24 -55,72 -72,105c-20,40 -36,61 -48,61c-22,0 -42,-19 -42,-40c0,-37 63,-140 115,-190c42,-39 54,-57 50,-71c-4,-10 -11,-19 -16,-19c-20,0 -157,147 -190,205c-28,47 -41,60 -59,60c-37,0 -52,-38 -47,-121c5,-98 55,-200 142,-291c52,-55 62,-70 54,-85c-5,-10 -14,-18 -19,-18c-13,0 -106,114 -158,193c-24,37 -59,101 -78,142c-29,65 -37,75 -59,75c-35,0 -47,-36 -48,-140c0,-66 6,-101 26,-158c33,-96 94,-197 163,-272c55,-59 56,-60 44,-95c-7,-20 -16,-35 -21,-33c-20,7 -101,117 -148,203c-28,50 -76,150 -107,221c-62,143 -68,154 -95,154c-64,0 -103,-218 -64,-365c42,-161 155,-325 289,-421l28,-20l-18,-37l-19,-36l-57,45c-162,128 -325,409 -361,620c-20,116 -59,127 -102,30c-55,-125 -67,-288 -31,-421c50,-186 196,-397 361,-525c49,-38 53,-44 43,-64c-6,-11 -12,-23 -14,-25c-2,-2 -27,14 -56,34c-217,156 -367,363 -419,580c-12,51 -24,144 -28,214c-5,100 -9,126 -23,134c-25,16 -42,-4 -78,-90c-57,-137 -82,-253 -87,-409c-9,-232 36,-369 165,-505c96,-102 185,-153 389,-224c8,-3 0,-32 -26,-92c-76,-176 -165,-485 -186,-648c-13,-95 32,-86 -396,-83l-380,3l-33,100c-19,55 -41,117 -50,137l-16,36l68,23c265,87 438,263 487,495c39,182 2,445 -92,656c-28,62 -47,76 -73,53c-13,-12 -17,-36 -18,-132c-3,-248 -87,-452 -266,-642c-55,-58 -207,-181 -224,-181c-6,0 -13,9 -17,19c-5,15 20,46 113,138c224,222 309,406 300,647c-4,117 -36,235 -74,277c-38,42 -63,18 -75,-72c-19,-132 -79,-275 -181,-428c-49,-72 -208,-241 -228,-241c-5,0 -17,17 -25,37c-14,34 -14,38 2,46c37,19 179,174 212,230c19,32 48,95 64,140c27,72 30,96 31,192c1,95 -2,117 -23,163c-27,61 -55,82 -78,59c-8,-8 -43,-80 -77,-158c-68,-157 -153,-309 -212,-378l-37,-43l-19,37l-19,36l60,64c70,75 131,174 162,265c18,51 23,88 23,167c1,92 -1,105 -21,124c-12,12 -28,19 -36,16c-9,-3 -33,-44 -55,-90c-44,-93 -118,-207 -182,-279c-46,-53 -56,-57 -65,-28c-5,16 7,35 53,85c85,90 136,196 140,289c5,88 -8,126 -42,126c-19,0 -31,-12 -55,-55c-17,-30 -67,-92 -112,-138c-75,-77 -81,-81 -94,-63c-13,18 -9,25 49,86c101,108 137,211 75,218c-23,3 -29,-5 -57,-61c-18,-36 -51,-84 -74,-108l-42,-43l-12,29c-11,28 -10,33 27,72c54,58 97,148 83,171c-6,9 -20,18 -31,20c-16,2 -29,-11 -56,-60c-20,-35 -44,-71 -55,-81c-18,-16 -19,-16 -30,7c-9,20 -7,27 15,47c28,27 53,70 53,93c0,8 -10,20 -22,27c-19,10 -25,7 -54,-27c-27,-32 -35,-36 -43,-24c-7,10 -6,19 5,31c34,38 10,67 -55,65c-32,-1 -47,-6 -55,-21c-6,-10 -19,-26 -30,-35c-27,-24 -6,-63 32,-58c22,2 28,-2 30,-20c3,-22 1,-23 -43,-20c-36,2 -50,-1 -58,-14c-20,-30 13,-51 87,-56c47,-3 66,-9 71,-20c8,-20 -14,-34 -45,-28c-14,2 -53,8 -86,11c-58,7 -62,6 -69,-14c-15,-47 42,-71 167,-71c66,0 79,-3 88,-19c5,-11 10,-24 10,-30c0,-15 -119,-14 -193,1c-54,11 -60,11 -73,-6c-18,-25 -3,-51 38,-66c47,-16 175,-24 224,-12c39,9 43,8 52,-13c9,-20 7,-24 -11,-29c-50,-14 -224,-18 -276,-7c-95,20 -111,-28 -33,-101c77,-73 141,-92 299,-93c125,0 133,-1 142,-21c9,-20 6,-22 -47,-27c-76,-8 -235,8 -343,34c-97,24 -119,21 -119,-15c0,-59 130,-159 264,-203c70,-22 100,-26 220,-28c135,-3 139,-3 152,-26c24,-43 18,-49 -48,-49c-111,0 -230,24 -525,107c-51,14 -64,15 -77,4c-21,-18 -20,-34 5,-83c50,-98 164,-186 299,-232c146,-48 284,-55 442,-20c22,5 29,1 42,-24c9,-17 16,-33 16,-36c0,-18 -101,-30 -240,-30c-225,1 -392,41 -541,130c-65,39 -84,42 -99,14c-29,-54 133,-262 263,-339c79,-46 205,-88 312,-102c102,-13 286,-7 383,14c58,13 64,12 72,-4c6,-10 10,-22 10,-28c0,-5 -42,-20 -92,-32c-79,-20 -119,-23 -273,-24c-158,0 -190,3 -258,23c-126,36 -253,105 -364,199c-54,46 -86,54 -102,26c-12,-22 24,-94 110,-224c122,-182 287,-318 454,-375c109,-37 255,-39 365,-5c73,22 194,80 257,121l32,21l17,-38c24,-56 64,-175 64,-190c0,-10 -22,-13 -90,-13c-102,0 -98,3 -125,-100c-28,-107 -45,-245 -51,-430c-6,-145 -4,-190 10,-260c44,-217 323,-875 406,-958c17,-17 45,-34 63,-37c18,-3 178,-5 356,-3l323,3l42,46c31,34 65,98 130,245c116,260 212,506 244,624c25,90 26,108 26,325c0,247 -12,353 -57,478l-22,62l-163,3c-128,2 -162,5 -162,16c0,70 79,398 128,532c48,131 93,234 103,234c5,0 34,-16 64,-36c184,-117 408,-153 586,-94c173,58 355,216 481,421c72,116 94,167 82,187c-20,30 -38,23 -123,-48c-95,-78 -247,-159 -349,-185c-165,-42 -380,-36 -574,16c-38,10 -45,22 -29,47c7,11 27,11 117,-3c138,-22 333,-16 444,14c121,32 249,102 322,174c71,70 136,169 145,221c4,27 1,36 -14,45c-16,8 -30,4 -69,-21c-146,-93 -358,-148 -573,-148c-89,0 -199,15 -214,30c-5,4 -1,22 8,40c13,25 21,31 38,26c170,-47 380,-23 541,62c119,62 222,183 214,250c-4,38 -30,39 -145,3c-177,-55 -305,-82 -415,-88c-117,-7 -122,-4 -94,46c13,24 17,25 117,22c195,-5 365,55 467,163c55,58 62,76 37,96c-13,11 -32,9 -103,-8c-111,-27 -268,-46 -338,-40c-62,5 -70,10 -57,33c8,14 31,17 139,19c137,2 190,14 265,62c51,32 92,88 84,113c-8,27 -25,31 -76,19c-46,-10 -251,-5 -282,7c-10,4 -17,15 -15,24c3,14 18,16 108,13c154,-3 255,38 207,85c-15,15 -23,16 -75,5c-56,-12 -192,-17 -192,-7c0,2 5,15 11,28c11,23 17,25 108,29c110,4 155,22 149,61c-3,25 -29,27 -145,12c-66,-8 -70,-6 -53,26c9,15 22,19 64,19c66,0 108,27 90,57c-9,14 -22,17 -58,15c-25,-2 -46,1 -46,7c0,26 12,38 35,34c34,-7 55,34 29,57c-11,9 -24,25 -30,35c-8,15 -23,20 -57,21c-25,1 -50,-3 -56,-9zM3737,4243c-6,-13 -13,-23 -17,-23c-13,0 -86,85 -112,131c-51,88 -40,89 50,1c80,-78 88,-89 79,-109zM3465,4211c28,-41 76,-101 108,-134c55,-57 57,-62 46,-89c-6,-15 -14,-28 -18,-28c-12,0 -76,72 -110,123c-38,56 -75,138 -86,187c-9,42 -5,38 60,-59zM3367,3888c21,-32 60,-80 86,-107l48,-49l-18,-36c-9,-20 -21,-36 -27,-36c-25,0 -173,168 -209,237c-58,112 -89,252 -70,322c5,19 19,-3 79,-125c40,-82 90,-175 111,-206zM3985,4215c66,-7 75,-9 55,-17c-44,-17 -154,-29 -202,-23l-48,7l15,28c13,26 17,27 57,20c24,-5 79,-11 123,-15zM2995,3880c85,-168 223,-338 347,-424l22,-16l-37,-76l-38,-75l-47,39c-233,195 -366,471 -337,698l7,59l28,-75c15,-41 39,-100 55,-130zM4056,3985c-53,-40 -259,-82 -343,-69l-42,6l15,32l15,31l122,-3c99,-2 168,2 247,16c3,1 -4,-5 -14,-13zM1521,3832c-16,-33 -52,-84 -80,-113l-49,-54l-12,26c-11,24 -7,30 77,115c48,49 89,89 91,88c2,-1 -10,-29 -27,-62zM2670,3846c0,-41 41,-179 75,-253c72,-156 200,-308 360,-428c44,-32 84,-62 88,-66c5,-4 -5,-34 -22,-67l-30,-60l-63,19c-377,113 -531,408 -436,836c11,52 28,63 28,19zM4125,3743c-100,-87 -221,-132 -375,-140c-64,-3 -127,-1 -162,6l-58,12l20,40l20,39l58,-6c79,-9 207,10 381,55c80,20 148,35 151,33c3,-2 -13,-20 -35,-39zM1705,3711c-19,-73 -83,-187 -139,-248l-50,-55l-15,30c-14,30 -13,31 43,94c32,35 83,100 113,146c30,45 56,82 58,82c2,0 -3,-22 -10,-49zM1919,3476c-39,-131 -120,-255 -213,-328l-51,-40l-17,38l-16,38l50,55c77,87 136,189 244,426l19,40l3,-79c2,-59 -3,-97 -19,-150zM1308,3665c7,-14 12,-28 12,-30c0,-11 -188,-3 -225,9l-40,13l70,7c39,4 88,11 110,16c60,12 61,12 73,-15zM2214,3459c20,-196 -86,-430 -282,-621c-49,-49 -93,-88 -98,-88c-5,0 -24,33 -42,73l-33,72l33,24c146,108 336,380 389,559c6,23 15,42 19,42c4,0 10,-27 14,-61zM4160,3424c-141,-143 -329,-203 -598,-191c-156,7 -192,13 -192,33c0,12 54,130 65,142c1,1 14,-2 28,-7c59,-23 233,-34 344,-22c122,13 285,49 353,80c25,11 47,20 50,20c2,1 -20,-24 -50,-55zM1272,3435c144,0 147,-1 158,-23c5,-13 10,-27 10,-32c0,-6 -39,-10 -88,-10c-97,0 -215,25 -279,59l-38,21l45,-8c25,-4 111,-7 192,-7zM2485,3245c23,-108 23,-282 2,-365c-51,-195 -179,-333 -377,-409c-131,-50 -125,-50 -161,20c-25,51 -28,64 -17,70c34,19 137,100 190,148c76,69 168,184 214,268c46,81 100,236 110,310c3,30 10,51 14,46c5,-4 16,-44 25,-88zM1060,3210c143,-39 279,-60 385,-60h104l16,-30c8,-16 15,-33 15,-39c0,-17 -140,-34 -227,-27c-147,11 -309,79 -383,161c-22,25 -23,27 -5,22c11,-4 54,-15 95,-27zM4198,3113c-50,-71 -188,-204 -251,-242c-104,-61 -173,-84 -277,-89c-68,-3 -114,0 -160,12c-66,16 -225,90 -269,125c-24,19 -25,19 -8,63c32,84 27,82 152,51c99,-25 127,-28 285,-28c212,0 289,17 450,99c58,29 106,54 108,55c2,0 -12,-20 -30,-46zM1200,2845c122,-19 317,-19 411,0c40,9 76,12 80,8c4,-5 21,-38 37,-75l30,-67l-56,-13c-34,-7 -120,-12 -212,-12c-125,1 -170,5 -233,22c-112,31 -222,91 -290,160l-58,58l98,-32c54,-18 141,-40 193,-49zM1184,2485c124,-32 255,-40 376,-26c88,11 232,40 272,56c14,6 24,-5 48,-56l29,-63l-42,-29c-74,-51 -197,-106 -275,-123c-134,-30 -279,-4 -407,74c-70,43 -190,154 -252,234l-44,57l99,-50c58,-29 140,-60 196,-74zM3213,1990c31,-25 52,-130 68,-341c14,-175 6,-320 -20,-415c-49,-172 -313,-782 -363,-835l-26,-29h-314c-313,0 -315,0 -335,23c-43,46 -237,469 -318,692c-69,191 -78,249 -72,455c9,270 38,438 80,458c15,7 221,11 648,11c611,1 627,1 652,-19z"></path></g></g></g></svg>