<svg version="1.1" xmlns="http://www.w3.org/2000/svg" xmlns:xlink="http://www.w3.org/1999/xlink" width="50.000000pt" height="50.000000pt" viewBox="0,0,256,256"><g fill="#43495c" fill-rule="nonzero" stroke="none" stroke-width="1" stroke-linecap="butt" stroke-linejoin="miter" stroke-miterlimit="10" stroke-dasharray="" stroke-dashoffset="0" font-family="none" font-weight="none" font-size="none" text-anchor="none" style="mix-blend-mode: normal"><g transform="translate(0,2.26628) scale(5.12,5.12)"><g transform="translate(0,50) scale(0.1,-0.1)"><path d="M13,454c-4,-10 11,-32 42,-64l48,-49l-49,-3l-49,-3l-3,-40c-2,-25 2,-43 10,-50c8,-5 22,-39 32,-75c10,-36 24,-80 32,-97l13,-33h161h161l13,33c8,17 22,61 32,97c10,36 24,70 32,75c8,7 12,25 10,50l-3,40l-49,3l-49,3l48,49c31,32 46,54 42,64c-11,29 -38,17 -106,-49l-68,-65h-63h-63l-68,65c-68,66 -95,78 -106,49zM115,380c38,-38 66,-73 62,-77c-8,-7 -147,125 -147,139c0,18 19,4 85,-62zM470,442c0,-14 -139,-146 -147,-139c-4,4 24,39 62,77c66,66 85,80 85,62zM140,299c30,-23 60,-20 60,6c0,11 12,15 50,15c38,0 50,-4 50,-15c0,-26 30,-29 60,-6c20,14 44,21 75,21c43,0 45,-1 45,-30v-30h-230h-230v30c0,29 2,30 45,30c31,0 55,-7 75,-21zM155,163c0,-73 1,-78 23,-81c21,-3 22,-1 22,77c0,58 4,81 13,81c8,0 12,-22 12,-77c0,-77 0,-78 25,-78c25,0 25,1 25,78c0,55 4,77 13,77c8,0 12,-23 12,-81c0,-78 1,-80 23,-77c21,3 22,8 22,81v77h53c60,0 59,4 28,-100l-22,-75h-154h-154l-22,75c-31,104 -32,100 29,100h52zM177,128c-2,-18 -4,-4 -4,32c0,36 2,50 4,33c2,-18 2,-48 0,-65zM260,160c0,-33 -4,-60 -10,-60c-6,0 -10,27 -10,60c0,33 4,60 10,60c6,0 10,-27 10,-60zM327,128c-2,-18 -4,-4 -4,32c0,36 2,50 4,33c2,-18 2,-48 0,-65z"></path></g></g></g></svg>