<svg version="1.1" xmlns="http://www.w3.org/2000/svg" xmlns:xlink="http://www.w3.org/1999/xlink" width="512.000000pt" height="512.000000pt" viewBox="0,0,256,256"><g fill="#72727c" fill-rule="nonzero" stroke="none" stroke-width="1" stroke-linecap="butt" stroke-linejoin="miter" stroke-miterlimit="10" stroke-dasharray="" stroke-dashoffset="0" font-family="none" font-weight="none" font-size="none" text-anchor="none" style="mix-blend-mode: normal"><g transform="translate(0.12233,0.05) scale(0.5,0.5)"><g transform="translate(0,512) scale(0.1,-0.1)"><path d="M3766,4723c-43,-43 -75,-69 -71,-58c4,11 9,36 12,57c6,44 -6,53 -90,63c-99,13 -123,-7 -157,-126l-19,-64v65c-1,36 -5,71 -10,79c-12,19 -90,8 -148,-20c-64,-31 -77,-62 -71,-179l5,-95l-19,65c-10,36 -22,76 -26,90c-13,45 -49,37 -144,-30c-48,-34 -89,-68 -92,-77c-3,-8 8,-46 25,-85c17,-38 28,-72 26,-75c-3,-2 -20,16 -39,41c-52,71 -84,72 -117,3c-31,-64 -36,-134 -17,-220c27,-121 89,-197 173,-213l32,-6l-56,-66c-114,-134 -200,-293 -263,-486l-37,-111l-6,155c-9,249 -53,367 -170,459c-63,49 -63,47 2,83c16,9 43,35 60,58c100,138 38,443 -110,546c-52,36 -68,27 -92,-52c-25,-83 -48,-134 -60,-134c-6,0 -7,44 -3,123c5,99 4,126 -7,135c-13,11 -188,55 -259,65c-42,6 -72,-13 -64,-42c16,-55 27,-145 24,-201l-3,-65l-33,105c-67,210 -95,236 -240,228c-130,-8 -142,-22 -98,-119c23,-49 49,-139 41,-139c-2,0 -31,38 -65,85c-75,104 -101,125 -152,125c-60,0 -188,-74 -188,-110c0,-10 25,-47 55,-81c30,-35 53,-64 51,-66c-1,-2 -64,24 -139,57c-76,33 -148,60 -161,60c-28,0 -357,-146 -368,-163c-21,-34 109,-364 163,-413c19,-17 23,-17 107,-1c162,32 343,40 357,16c7,-10 -42,-24 -180,-49c-60,-12 -118,-23 -127,-26c-32,-9 -21,-52 26,-102c25,-26 62,-77 84,-112c21,-36 47,-67 56,-68c10,-2 86,28 169,66c200,93 327,146 302,126c-11,-9 -78,-59 -150,-112c-151,-113 -160,-128 -99,-182c98,-86 159,-80 301,28c43,32 110,80 148,108l70,49l-33,-40c-162,-197 -202,-251 -202,-271c0,-25 105,-114 135,-114c9,0 92,62 184,138c227,188 206,174 187,128c-22,-52 -57,-92 -137,-154c-95,-73 -92,-101 12,-117c140,-21 317,75 386,210c43,83 43,203 -2,330c-4,11 13,-1 39,-28c87,-92 106,-185 106,-526v-244l-24,26c-103,111 -298,91 -441,-44c-29,-27 -54,-49 -57,-49c-3,0 -11,18 -18,41c-21,63 -81,124 -143,146c-78,27 -226,24 -291,-5c-74,-33 -116,-69 -116,-97c0,-19 10,-30 48,-49c26,-13 58,-33 72,-44l25,-21l-65,16c-36,8 -83,16 -105,17c-40,1 -40,0 -77,-69c-20,-38 -44,-93 -54,-121c-24,-73 -14,-84 80,-85c39,0 89,-4 111,-8l40,-7l-55,-8c-162,-22 -184,-28 -217,-61c-35,-35 -47,-84 -41,-170c3,-57 -3,-54 123,-41l60,7l-82,-41c-121,-60 -135,-99 -78,-233c22,-53 39,-56 109,-17l59,33l-56,-79c-32,-44 -66,-95 -76,-115l-20,-35l36,-160c20,-87 39,-163 44,-168c19,-21 186,-2 311,35c90,26 98,39 98,159c0,107 16,230 30,244c7,7 10,-38 10,-126c0,-177 -2,-176 127,-113c54,26 109,53 123,59c32,16 31,28 -19,241c-22,93 -39,171 -37,172c1,1 19,-37 40,-86c51,-118 83,-171 105,-171c30,0 96,55 115,95c24,51 18,83 -46,222c-29,64 -55,121 -57,127c-2,5 34,-37 81,-95c105,-130 119,-134 193,-59l50,51l-28,52c-144,268 -159,299 -139,288c28,-15 56,-56 93,-134c16,-36 37,-68 46,-71c49,-19 92,113 72,221c-29,158 -146,261 -303,266c-50,2 -54,4 -39,16c44,33 125,63 176,63c89,1 144,-43 181,-143c16,-41 16,-62 6,-205c-19,-275 -60,-648 -91,-831l-11,-63h-103c-75,0 -106,-4 -114,-14c-31,-37 -68,-401 -58,-562c7,-102 52,-290 123,-505c78,-241 122,-345 155,-374l31,-25h208h208l31,25c70,59 248,620 273,860c18,176 -14,535 -53,581c-8,10 -39,14 -114,14h-103l-6,38c-20,108 -181,698 -243,886l-35,108l16,66c62,250 241,347 423,229l48,-31l-70,-8c-83,-10 -176,-51 -234,-103c-126,-114 -148,-345 -48,-491c24,-35 42,-50 60,-52c32,-4 40,12 56,116c11,73 46,157 75,181c10,8 16,9 16,3c0,-6 -21,-111 -46,-233c-25,-122 -43,-228 -40,-236c8,-19 146,-82 164,-75c17,6 84,145 132,275c18,48 34,86 36,84c2,-2 -8,-89 -23,-193c-29,-206 -27,-246 12,-293c44,-51 161,-91 180,-61c3,5 17,83 31,172c37,237 39,241 48,108c5,-63 11,-183 15,-266c4,-104 11,-157 20,-168c10,-12 32,-16 85,-17c39,0 103,-8 141,-18c72,-19 105,-15 105,14c0,8 -21,80 -46,160c-26,80 -44,148 -41,151c16,16 38,-13 77,-103c24,-54 60,-145 80,-203l36,-105l45,-8c79,-14 377,20 416,48c15,11 16,29 5,210c-8,126 -17,204 -25,213c-6,9 -68,60 -136,114c-68,54 -119,98 -115,98c5,0 47,-9 93,-20c113,-27 116,-24 116,110c0,144 -4,147 -255,187l-55,9l40,13c22,6 73,15 112,18c83,7 98,18 89,65c-10,53 -61,153 -90,176c-42,32 -73,34 -216,12c-73,-11 -140,-20 -149,-20c-27,1 110,67 188,90c40,13 75,29 79,38c8,22 -22,68 -107,167c-87,99 -96,101 -180,51c-75,-45 -142,-78 -147,-73c-8,7 73,103 106,127c69,49 5,112 -126,126c-151,16 -367,-76 -421,-180c-9,-17 -22,-57 -27,-88l-11,-57l-49,30c-71,45 -123,61 -196,62c-79,1 -127,-14 -185,-59c-25,-19 -45,-31 -45,-26c0,19 52,196 79,270c51,140 172,343 247,413l24,22v-39c0,-77 28,-143 84,-199c67,-67 129,-89 230,-83c90,6 176,47 176,84c0,28 -5,31 -75,49c-55,15 -140,53 -133,60c2,2 75,-18 162,-45c87,-27 163,-47 170,-44c12,5 76,106 76,121c0,17 -43,49 -120,92c-76,42 -73,43 41,15c124,-31 186,-12 229,70c35,64 25,75 -96,108l-99,28l163,-4c184,-5 174,-9 187,79c4,28 15,74 25,103c32,90 16,100 -108,72c-48,-11 -98,-22 -112,-25c-57,-13 129,56 204,75c44,11 87,27 96,35c12,13 15,45 15,175c0,136 -2,162 -17,176c-14,14 -43,18 -170,21l-153,5zM4104,4704c8,-20 8,-182 0,-211c-4,-15 -16,-23 -42,-28c-47,-8 -187,-53 -227,-73c-51,-25 -75,-53 -75,-87c0,-63 51,-83 158,-60c95,19 93,20 82,-11c-6,-14 -10,-37 -10,-51v-25l-188,7c-203,8 -253,1 -273,-37c-15,-29 -4,-61 28,-79c15,-9 82,-29 148,-44c66,-15 122,-29 124,-31c10,-9 -24,-34 -46,-34c-14,0 -86,16 -160,35c-190,49 -283,46 -283,-9c0,-29 37,-54 199,-135c73,-37 121,-67 121,-76c0,-8 -5,-15 -12,-15c-6,0 -91,25 -189,55c-98,30 -184,55 -192,55c-30,0 -41,-28 -28,-70c15,-52 53,-95 115,-131l51,-31l-58,5c-70,7 -137,43 -166,90c-47,76 -51,217 -8,258c40,38 121,95 205,144c81,47 96,67 70,93c-7,7 -19,12 -28,12c-24,0 -166,-86 -252,-153c-77,-59 -78,-59 -133,-55c-44,4 -62,11 -85,33c-49,47 -86,200 -64,259c5,14 13,10 41,-19c68,-70 157,-97 169,-51c5,19 -27,118 -70,218c-6,12 3,25 35,48c23,17 45,27 49,23c3,-5 14,-35 24,-68c22,-73 71,-179 91,-195c18,-15 51,2 62,32c4,13 7,93 5,179c-2,138 0,158 15,171c41,35 50,30 57,-30c8,-69 33,-159 52,-189c8,-13 23,-23 34,-23c26,0 33,18 69,168c17,67 33,127 36,132c8,13 65,13 65,-1c0,-5 -12,-51 -27,-100c-20,-68 -24,-95 -16,-107c23,-37 44,-24 171,102l127,126h111c93,0 113,-3 118,-16zM1785,4664c22,-9 36,-40 84,-183c61,-182 121,-279 159,-255c9,6 20,22 23,35c10,33 9,264 0,322c-9,55 -6,56 94,29l60,-17l5,-155c3,-85 9,-161 13,-167c17,-26 54,-13 97,33c40,44 90,138 90,170c0,29 24,8 56,-50c72,-131 71,-313 -2,-378c-11,-9 -45,-29 -76,-43l-57,-26l-79,25c-65,20 -206,51 -374,81c-33,5 -60,-18 -56,-49c3,-19 17,-23 138,-44c145,-24 302,-65 335,-86c30,-20 83,-131 96,-199c11,-63 2,-134 -25,-185c-35,-67 -132,-136 -221,-157c-28,-6 -27,-4 23,49c29,31 62,76 73,101c40,90 34,195 -11,195c-12,0 -104,-69 -221,-165c-110,-91 -203,-165 -207,-165c-11,1 -42,26 -42,35c0,10 48,70 161,200c91,106 139,172 139,192c0,6 -7,18 -15,27c-36,36 -128,-8 -325,-154c-80,-59 -155,-113 -167,-119c-32,-16 -68,-14 -93,7l-22,18l142,99c78,55 153,112 166,128c30,35 31,70 3,98c-39,39 -112,17 -432,-133c-70,-33 -129,-59 -130,-57c-1,2 -22,32 -45,67c-24,35 -42,65 -40,66c1,2 46,11 98,20c118,21 157,40 178,82c19,40 8,73 -35,101c-23,15 -47,18 -163,16c-76,0 -169,-8 -214,-17c-44,-9 -81,-15 -82,-13c-1,1 -18,34 -38,74c-44,89 -90,223 -79,233c14,12 262,120 276,120c7,0 62,-22 122,-48c195,-86 303,-124 325,-112c11,6 20,19 20,29c0,9 -39,66 -86,125c-47,59 -85,108 -83,110c32,24 59,36 81,36c24,0 43,-21 143,-155c115,-156 137,-174 164,-141c16,19 -3,200 -30,279c-11,32 -17,62 -14,68c7,10 75,12 100,3zM3696,3397c4,-4 -12,-27 -35,-53c-53,-56 -93,-142 -89,-186c3,-31 5,-33 38,-32c36,2 117,36 224,96l59,32l60,-63l59,-64l-59,-22c-79,-30 -154,-69 -235,-121c-73,-47 -86,-74 -47,-95c35,-19 176,-14 317,11c153,27 170,23 202,-39c27,-53 25,-61 -10,-61c-87,0 -301,-86 -308,-124c-2,-10 0,-22 5,-27c5,-5 97,-23 203,-39c107,-17 199,-35 205,-41c9,-9 13,-94 4,-104c-3,-2 -62,8 -133,22c-100,20 -133,23 -152,14c-13,-6 -24,-17 -24,-26c0,-20 93,-107 244,-227l121,-97l11,-153c6,-84 8,-156 5,-160c-10,-12 -142,-29 -240,-31l-92,-2l-28,85c-30,94 -98,244 -131,290c-63,88 -170,66 -170,-35c0,-22 14,-85 31,-139c17,-54 29,-99 27,-101c-2,-2 -23,1 -48,5c-25,5 -62,9 -82,10h-38v68c0,105 -28,445 -39,474c-30,80 -109,78 -140,-4c-8,-20 -51,-328 -51,-363c0,-14 -34,-2 -55,20c-33,32 -33,84 0,263c30,158 34,282 11,336c-16,38 -25,42 -57,26c-24,-14 -48,-60 -104,-207c-98,-254 -100,-258 -140,-229c-18,13 -17,22 34,275c43,211 51,264 41,276c-17,21 -33,19 -89,-10c-74,-37 -127,-109 -152,-209c-19,-74 -34,-42 -34,72c0,86 3,103 27,148c15,28 42,64 60,79c69,59 190,92 288,80l55,-7l191,-189c105,-105 213,-217 240,-250c38,-46 54,-59 73,-57c13,2 29,11 34,20c15,22 -36,81 -295,343l-208,211v67c0,37 6,82 14,100c24,60 101,109 221,143c49,14 168,15 181,1zM1899,3065c47,-28 69,-61 83,-126l12,-57l-71,-108c-84,-130 -143,-244 -143,-278c0,-26 32,-52 50,-41c6,4 31,48 56,98c52,102 143,248 181,289c51,54 201,63 282,17c64,-35 120,-130 121,-204v-30l-19,31c-49,81 -142,139 -212,132c-58,-5 -51,-33 61,-243c90,-166 100,-189 87,-203c-18,-17 -31,-4 -132,128c-76,99 -145,170 -165,170c-39,0 -50,-47 -29,-125c6,-22 42,-106 80,-187c38,-81 69,-157 69,-168c0,-25 -17,-60 -29,-60c-5,0 -35,61 -66,135c-61,142 -87,178 -130,178c-72,0 -75,-53 -16,-316c24,-104 40,-191 37,-194c-3,-3 -28,-16 -55,-29l-51,-23v97c0,110 -17,154 -65,166c-77,20 -121,-79 -134,-304l-6,-104l-45,-14c-77,-22 -214,-40 -221,-28c-3,6 -16,63 -29,126l-22,115l106,159c58,88 106,168 106,178c0,9 -10,23 -22,29c-19,10 -35,4 -121,-40c-59,-31 -104,-48 -109,-43c-5,5 -10,22 -11,38c-2,28 4,32 148,104c118,59 151,80 153,97c5,37 -30,47 -175,47l-132,1l6,25c11,51 30,68 80,74c144,18 249,38 289,55c113,51 41,100 -193,132c-46,7 -83,16 -83,21c0,23 52,109 64,105c39,-15 182,-38 223,-35c41,3 48,6 51,25c5,33 -43,97 -104,139c-30,21 -52,39 -50,42c37,36 237,41 295,7zM2790,2115l79,-310l-56,-3c-30,-2 -57,-2 -58,0c-2,2 -14,71 -29,153c-29,173 -53,374 -61,525l-5,105l25,-80c14,-44 61,-219 105,-390zM2635,2070c15,-107 29,-212 32,-232l6,-38h-68h-67l5,33c3,17 18,126 33,240c16,115 29,205 31,200c1,-4 14,-96 28,-203zM3119,1665c9,-41 14,-137 15,-300l1,-240l-37,-135c-43,-159 -170,-531 -192,-566l-16,-24h-190c-186,0 -190,0 -204,23c-19,29 -167,471 -201,602c-18,66 -28,139 -32,215c-6,118 9,354 28,441l11,49l401,-2l402,-3z"></path></g></g></g></svg>