<svg version="1.1" xmlns="http://www.w3.org/2000/svg" xmlns:xlink="http://www.w3.org/1999/xlink" width="512.000000pt" height="512.000000pt" viewBox="0,0,256,256"><g fill="#72727c" fill-rule="nonzero" stroke="none" stroke-width="1" stroke-linecap="butt" stroke-linejoin="miter" stroke-miterlimit="10" stroke-dasharray="" stroke-dashoffset="0" font-family="none" font-weight="none" font-size="none" text-anchor="none" style="mix-blend-mode: normal"><g transform="translate(0.09533,-0.24399) scale(0.5,0.5)"><g transform="translate(0,512) scale(0.1,-0.1)"><path d="M3788,4755c-459,-121 -711,-231 -885,-389c-107,-97 -195,-241 -229,-376c-26,-102 -16,-232 24,-313c39,-78 90,-132 153,-162l48,-22l-48,-66c-249,-341 -326,-872 -198,-1349l24,-88h-27h-26l-28,226c-62,505 -149,802 -278,949l-39,44l51,26c108,55 170,146 178,260c10,167 -110,310 -347,414c-239,105 -989,311 -1133,311c-58,0 -62,-13 -49,-152c14,-144 33,-240 68,-346c115,-343 356,-584 698,-698c97,-32 242,-43 310,-24c53,15 127,76 145,120c7,16 16,30 20,30c16,0 81,-83 111,-142c87,-173 143,-422 202,-911c13,-99 12,-107 -4,-107c-13,0 -19,16 -29,83c-41,286 -123,526 -216,635c-19,23 -59,53 -89,68c-48,23 -63,26 -122,21c-38,-3 -80,-9 -94,-12c-24,-6 -28,-3 -38,28c-16,49 -75,105 -140,136c-50,23 -68,26 -171,26c-108,0 -119,-2 -181,-31c-226,-107 -363,-439 -409,-993c-15,-176 -13,-180 98,-128c105,50 182,65 402,77c102,6 216,18 254,25c226,47 379,214 402,439c11,111 -43,256 -124,327l-33,29h51c63,0 97,-17 145,-72c73,-86 121,-223 170,-486c14,-73 25,-141 25,-151c0,-16 -19,-19 -214,-27c-208,-9 -215,-10 -254,-37c-128,-84 -198,-336 -172,-614c22,-240 77,-418 213,-689c88,-175 138,-241 213,-281c87,-46 146,-55 394,-59c418,-6 504,19 611,184c124,189 247,494 285,707c27,148 24,393 -5,500c-41,151 -107,248 -188,273c-22,7 -145,15 -298,20l-260,7l-23,80c-22,74 -23,86 -13,170c21,168 69,308 135,395c25,33 99,90 117,90c5,0 -5,-21 -21,-46c-48,-76 -63,-135 -58,-228c8,-146 91,-266 231,-331c94,-44 170,-59 477,-89c279,-28 351,-38 453,-62c108,-26 109,-22 56,182c-54,210 -149,418 -280,610c-163,239 -322,344 -523,344c-161,-1 -249,-84 -248,-236v-61l-57,-6c-135,-12 -236,-117 -307,-317l-23,-65v120c-2,297 75,585 209,786c66,99 90,127 96,112c16,-38 97,-131 149,-170c307,-233 731,-112 856,243c31,89 67,275 84,438c16,150 20,715 7,806c-7,43 -9,45 -42,47c-19,1 -128,-22 -242,-52zM3997,4343c-5,-400 -13,-488 -61,-701c-15,-67 -38,-137 -57,-172c-43,-80 -122,-153 -215,-197c-65,-31 -88,-37 -169,-41c-76,-4 -106,-1 -163,17c-118,36 -233,126 -283,224l-20,38l22,31c17,23 20,35 12,47c-15,24 -47,25 -68,1c-40,-44 -142,-12 -195,62c-41,56 -60,126 -60,218c0,184 104,361 295,503c98,73 284,165 430,213c125,41 478,133 514,134h23zM1187,4119c266,-50 791,-208 973,-292c226,-104 325,-268 249,-417c-38,-76 -153,-147 -220,-136c-27,4 -42,2 -53,-10c-15,-14 -15,-18 1,-45c17,-29 17,-31 -2,-67c-12,-22 -37,-46 -63,-60c-111,-62 -371,1 -573,139c-230,156 -406,466 -433,764c-4,39 -9,87 -12,108c-7,45 -12,44 133,16zM3446,3011c209,-74 419,-371 555,-783c27,-81 49,-154 49,-161c0,-12 -11,-12 -67,-1c-38,7 -183,24 -323,38c-270,28 -381,46 -469,76c-184,65 -276,262 -198,423c15,30 44,70 63,87c31,26 42,30 82,28c41,-3 47,0 50,18c2,11 -11,37 -28,58c-51,66 -33,164 39,213c45,31 165,32 247,4zM1719,2899c61,-13 108,-43 138,-88c32,-48 29,-74 -13,-106c-27,-21 -34,-33 -32,-53c4,-37 31,-39 78,-8c58,38 85,34 140,-21c127,-129 118,-357 -19,-500c-98,-101 -186,-128 -486,-148c-216,-15 -303,-28 -378,-60l-37,-15l5,37c2,21 9,85 15,143c32,300 116,556 231,701c82,103 218,148 358,118zM3290,1888c98,-50 150,-179 158,-389c9,-287 -53,-530 -221,-853c-124,-237 -160,-255 -502,-260c-350,-6 -451,11 -523,85c-67,68 -212,356 -266,526c-51,163 -69,276 -69,443c-1,175 12,243 66,349c50,100 61,105 240,112c84,3 359,6 612,7c460,2 461,2 505,-20z"></path><path d="M3697,4368c-8,-13 -36,-59 -62,-103c-112,-186 -298,-400 -437,-504c-61,-45 -73,-76 -43,-101c19,-15 43,0 170,109c135,116 286,302 396,489c52,88 56,101 37,120c-19,19 -46,14 -61,-10z"></path><path d="M1293,3863c-7,-2 -13,-16 -13,-30c0,-38 153,-185 283,-271c185,-123 437,-231 473,-201c8,7 14,23 12,37c-3,20 -15,28 -88,52c-113,37 -177,67 -290,135c-127,77 -194,130 -272,215c-63,67 -77,75 -105,63z"></path><path d="M3272,2678c-27,-27 -13,-47 57,-82c93,-47 207,-140 283,-231c65,-76 93,-91 118,-60c16,20 -14,66 -101,155c-88,89 -144,133 -235,185c-83,47 -102,53 -122,33z"></path><path d="M1625,2532c-124,-80 -264,-221 -326,-327c-34,-59 -37,-90 -9,-105c24,-13 33,-4 93,90c57,89 182,211 284,276c69,45 84,59 81,77c-5,38 -54,34 -123,-11z"></path></g></g></g></svg>