<svg version="1.1" xmlns="http://www.w3.org/2000/svg" xmlns:xlink="http://www.w3.org/1999/xlink" width="512.000000pt" height="512.000000pt" viewBox="0,0,256,256"><g fill="#72727c" fill-rule="nonzero" stroke="none" stroke-width="1" stroke-linecap="butt" stroke-linejoin="miter" stroke-miterlimit="10" stroke-dasharray="" stroke-dashoffset="0" font-family="none" font-weight="none" font-size="none" text-anchor="none" style="mix-blend-mode: normal"><g transform="translate(0.11422,-0.10524) scale(0.5,0.5)"><g transform="translate(0,512) scale(0.1,-0.1)"><path d="M3510,4830c-139,-24 -260,-142 -277,-271c-5,-32 -9,-39 -22,-33c-39,17 -140,16 -192,-1c-82,-28 -161,-111 -188,-199c-25,-81 -26,-122 -5,-201c18,-72 53,-133 107,-192l40,-44l-36,-30c-20,-17 -49,-52 -65,-77c-22,-39 -27,-59 -27,-112c1,-149 118,-250 289,-250h60l-39,-41c-22,-22 -71,-56 -109,-75c-62,-31 -77,-34 -155,-34c-100,0 -201,25 -294,72c-78,39 -247,147 -247,158c0,5 9,12 20,15c36,12 141,117 167,169c62,121 10,276 -112,338c-22,11 -41,22 -43,23c-2,2 10,27 27,57c89,157 73,313 -43,415c-96,85 -231,82 -354,-7l-41,-29l-31,49c-47,73 -130,145 -198,170c-74,28 -195,25 -258,-8c-71,-37 -143,-143 -144,-211c-1,-41 -17,-44 -56,-13c-130,104 -323,109 -472,13c-117,-76 -202,-202 -202,-298c0,-71 21,-115 86,-179l62,-62l-46,-17c-25,-10 -69,-41 -98,-69c-63,-62 -90,-135 -81,-225c12,-128 73,-222 177,-270c49,-23 70,-26 198,-29l142,-4l-36,-40c-84,-94 -108,-221 -60,-323c72,-156 296,-236 448,-162c65,32 122,90 150,154c18,40 21,43 36,30c47,-41 107,-62 182,-62c65,0 84,4 141,32c84,42 160,121 201,210c17,38 32,69 33,71c5,6 203,-50 242,-69c48,-23 66,-49 65,-92c-1,-45 -40,-86 -182,-187c-288,-207 -360,-307 -390,-546c-13,-104 0,-221 35,-307l23,-57h-233c-192,0 -236,-3 -248,-15c-45,-44 -112,-269 -126,-418c-25,-270 70,-473 468,-1006c121,-161 159,-205 198,-228l48,-28l480,-3c329,-3 496,0 531,8c74,16 118,59 272,265c268,357 400,582 443,755c40,159 13,382 -72,585c-16,40 -37,76 -45,79c-9,3 -188,6 -399,6h-383l-50,55c-71,78 -97,135 -97,215c0,73 18,119 66,168c54,55 81,62 251,62h154l12,-47c9,-33 26,-60 56,-89c110,-105 292,-97 390,18l34,39l32,-16c44,-23 120,-30 165,-15c81,27 155,125 170,223c9,60 -14,127 -56,160c-27,21 -29,26 -19,51c26,70 -9,156 -80,193c-51,27 -132,30 -195,8c-38,-14 -41,-13 -65,10c-104,100 -322,56 -412,-84c-27,-42 -29,-52 -26,-113l4,-68l-41,-1c-114,-4 -155,11 -155,57c0,45 146,197 368,383l123,103l68,-65c88,-83 156,-111 251,-104c85,5 152,40 217,111c28,30 63,82 78,115l28,59l91,4c73,3 102,9 148,30c76,35 142,98 175,167c23,47 28,68 27,136c0,114 -28,181 -111,264l-64,63l24,32c64,84 103,208 90,290c-13,89 -73,178 -150,223c-36,21 -62,27 -122,30c-91,5 -162,-16 -252,-76l-59,-39l-30,64c-81,169 -241,262 -400,234zM3686,4732c81,-42 139,-118 178,-233c13,-40 31,-76 39,-81c11,-6 31,5 69,35c114,94 210,133 291,120c62,-10 127,-60 160,-123c24,-46 28,-64 25,-110c-5,-72 -45,-157 -102,-218c-25,-27 -46,-56 -46,-65c0,-9 24,-32 53,-50c213,-136 208,-401 -8,-498c-48,-22 -101,-26 -219,-16c-33,2 -32,3 -84,-113c-52,-117 -137,-180 -242,-180c-72,0 -124,25 -188,90l-52,52l132,137c196,204 366,411 413,505c63,125 11,243 -113,262c-122,18 -243,-86 -293,-253c-26,-88 -84,-108 -155,-53c-115,89 -179,117 -240,105c-49,-9 -84,-56 -84,-111c0,-54 19,-93 76,-158c37,-40 44,-55 44,-90c0,-50 -40,-139 -72,-160c-13,-8 -51,-19 -85,-26c-151,-27 -273,56 -261,180c6,60 36,103 104,146c30,19 54,42 54,50c0,9 -29,44 -64,77c-81,79 -117,149 -124,240c-8,110 41,202 132,249c70,37 141,30 223,-22c35,-22 53,1 53,69c1,66 18,118 54,166c29,38 100,83 149,96c50,13 139,3 183,-19zM1735,4621c62,-28 127,-98 161,-176c36,-82 52,-88 107,-38c122,112 234,128 319,45c99,-95 86,-243 -33,-385c-29,-33 -38,-53 -34,-67c6,-20 38,-35 55,-25c5,3 27,1 49,-5c77,-20 140,-125 125,-205c-12,-68 -86,-150 -176,-196l-37,-19l-31,40c-42,53 -93,166 -125,280c-44,159 -103,240 -174,240c-87,0 -120,-116 -98,-336c8,-71 7,-82 -8,-88c-21,-7 -34,0 -137,74c-46,33 -107,69 -136,80c-168,64 -264,-28 -201,-195c33,-90 142,-193 274,-261c115,-59 196,-88 326,-114c50,-10 94,-21 97,-25c11,-10 -37,-95 -80,-141c-59,-64 -116,-95 -188,-101c-51,-5 -67,-2 -115,21c-30,15 -67,43 -82,62c-19,26 -32,34 -51,32c-21,-3 -27,-12 -41,-69c-21,-84 -59,-134 -125,-165c-57,-27 -143,-32 -208,-12c-51,15 -126,82 -149,133c-55,119 25,259 193,340c53,25 63,34 63,55c0,24 -2,25 -65,23c-36,-1 -148,-3 -250,-5c-182,-3 -186,-3 -235,23c-73,37 -109,99 -113,195c-5,96 20,153 87,195c53,34 94,47 176,56c69,7 85,16 85,48c0,20 -10,27 -67,45c-90,29 -166,79 -186,123c-67,140 78,327 285,368c120,24 231,-24 320,-138c51,-65 55,-67 82,-57c13,5 16,24 16,108c0,76 5,111 19,141c21,47 80,102 119,111c15,3 32,8 37,10c21,8 107,-6 150,-25zM4019,4160c10,-5 24,-22 30,-38c20,-48 -2,-101 -83,-210c-178,-235 -407,-472 -680,-700c-83,-69 -183,-159 -222,-198c-76,-78 -134,-174 -134,-222c0,-99 153,-144 345,-102c169,37 304,36 293,-3c-6,-22 -170,-95 -250,-111c-53,-11 -133,-16 -252,-16c-214,0 -257,-12 -331,-91c-83,-88 -111,-190 -80,-294c18,-63 32,-88 83,-153l33,-42h-374h-375l-20,48c-42,100 -47,127 -47,247c0,238 68,348 334,537c186,131 241,193 241,273c0,65 -38,114 -119,155c-73,37 -115,48 -289,80c-234,43 -312,65 -427,120c-112,54 -174,107 -235,201c-65,101 -63,149 7,149c48,0 96,-23 188,-89c134,-97 171,-109 232,-71c42,25 49,66 33,190c-19,142 -4,229 36,213c22,-8 60,-90 89,-190c77,-269 131,-338 378,-489c296,-181 515,-211 696,-94c108,69 239,235 282,355c33,93 23,134 -54,223c-53,60 -62,83 -47,112c22,40 71,25 197,-63c62,-43 80,-51 120,-51c34,-1 57,5 79,21c31,22 36,30 104,175c48,104 87,138 158,138c24,0 51,-4 61,-10zM3532,2990c25,-7 49,-25 70,-51c36,-45 37,-45 130,-9c128,50 222,-33 157,-139c-25,-41 -20,-55 29,-80c62,-32 78,-91 43,-166c-35,-75 -106,-122 -165,-109c-17,3 -49,19 -70,35c-53,39 -72,37 -95,-9c-64,-126 -214,-156 -312,-62c-25,23 -39,46 -39,62c0,22 7,26 73,41c168,40 297,120 297,185c0,87 -113,128 -275,99c-49,-9 -84,-11 -90,-6c-17,17 -9,86 15,119c27,38 87,77 138,89c51,12 52,12 94,1zM3613,1882c23,-25 63,-135 82,-228c22,-103 22,-251 1,-332c-45,-171 -173,-382 -464,-767c-82,-109 -124,-156 -154,-173c-41,-22 -42,-22 -522,-22c-438,0 -484,2 -516,18c-25,12 -79,76 -193,227c-321,426 -446,668 -447,866c0,121 62,371 102,411c17,17 69,18 1056,18c986,0 1040,-1 1055,-18z"></path></g></g></g></svg>