<svg version="1.1" xmlns="http://www.w3.org/2000/svg" xmlns:xlink="http://www.w3.org/1999/xlink" width="512.000000pt" height="512.000000pt" viewBox="0,0,256,256"><g fill="#bababc" fill-rule="nonzero" stroke="none" stroke-width="1" stroke-linecap="butt" stroke-linejoin="miter" stroke-miterlimit="10" stroke-dasharray="" stroke-dashoffset="0" font-family="none" font-weight="none" font-size="none" text-anchor="none" style="mix-blend-mode: normal"><g transform="translate(0,0)"><g><g transform="translate(-0.0595,-0.00733) scale(0.5,0.5)"><g transform="translate(0,512) scale(0.1,-0.1)"><path d="M1830,5114c-514,-63 -902,-246 -1240,-584c-304,-304 -491,-669 -567,-1105c-24,-139 -24,-471 0,-610c76,-436 263,-801 567,-1105c304,-304 669,-491 1105,-567c139,-24 471,-24 610,0c275,48 530,142 733,270l64,40l691,-691c746,-744 729,-729 861,-753c265,-49 506,192 457,457c-24,132 -9,115 -753,861l-691,691l40,64c128,203 222,458 270,733c24,139 24,471 0,610c-76,436 -263,801 -567,1105c-302,303 -674,494 -1100,565c-91,16 -407,28 -480,19zM2261,4900c722,-109 1309,-641 1483,-1345c34,-138 45,-224 52,-383c22,-516 -206,-1046 -601,-1394c-452,-399 -1047,-546 -1630,-402c-319,79 -600,239 -835,474c-277,277 -448,617 -511,1015c-16,103 -16,407 0,510c63,398 234,738 511,1015c308,308 676,478 1135,524c66,7 316,-2 396,-14zM3694,1711l139,-140l-69,-73c-38,-41 -102,-105 -142,-143l-73,-69l-141,141l-140,141l138,140c77,77 141,141 144,141c3,1 68,-62 144,-138zM4888,506c23,-33 27,-50 27,-106c0,-54 -5,-73 -25,-103c-53,-78 -140,-111 -230,-87c-41,11 -90,57 -507,472l-461,460l141,143l142,143l443,-442c243,-242 455,-459 470,-480z"></path><path d="M1834,4710c-361,-38 -704,-202 -963,-461c-431,-431 -579,-1063 -384,-1639c80,-237 208,-442 384,-619c431,-431 1063,-579 1639,-384c237,80 442,208 619,384c431,431 579,1063 384,1639c-160,474 -529,843 -1003,1003c-220,75 -450,101 -676,77zM2184,4505c309,-41 577,-174 802,-399c550,-550 550,-1422 0,-1972c-550,-550 -1422,-550 -1972,0c-550,550 -550,1422 0,1972c315,314 734,457 1170,399z"></path><path d="M1964,4311c-32,-14 -64,-60 -64,-92c0,-38 44,-87 83,-93c18,-3 76,-10 129,-15c291,-32 551,-192 725,-446c12,-17 41,-71 66,-120c25,-50 54,-98 64,-106c47,-41 124,-24 148,34c17,42 8,81 -43,182c-191,381 -580,639 -997,660c-49,3 -100,1 -111,-4z"></path><path d="M3064,3210c-32,-13 -64,-59 -64,-91c0,-40 46,-88 91,-95c31,-5 42,-1 70,24c28,25 34,37 34,72c0,35 -6,47 -33,71c-33,29 -60,35 -98,19z"></path></g></g></g></g></g></svg>